<svg xmlns="http://www.w3.org/2000/svg" viewBox="0 0 24 24">
    <g id="actors_icon">
        <path d="M1.25,6.47a.55.55,0,0,1,.18,0,9.4,9.4,0,0,0,2.05-.16c.32-.06.62-.14.93-.23s.57-.2.84-.31a9.53,9.53,0,0,0,1.06-.53,10.21,10.21,0,0,0,1.44-1c.24-.19.46-.4.68-.61s.5-.51.74-.78.29-.35.43-.53l.06-.07a2,2,0,0,1,.06.23,4.27,4.27,0,0,0,.28.83,16.47,16.47,0,0,0,.89,1.72,15.52,15.52,0,0,1,.79,1.58,4.34,4.34,0,0,1,.3,1A2.74,2.74,0,0,1,11.84,9a.22.22,0,0,0,0,.14l.45,1.31a6.45,6.45,0,0,1,.32,1.24,3.55,3.55,0,0,1,0,1,3.11,3.11,0,0,1-.82,1.67,3.85,3.85,0,0,1-.56.51,2.58,2.58,0,0,1-.83.41,4.65,4.65,0,0,1-1.27.23,3.61,3.61,0,0,1-1.31-.18,2.11,2.11,0,0,1-.58-.34,4.1,4.1,0,0,1-.6-.65c-.17-.22-.32-.46-.47-.7a9.48,9.48,0,0,0-.63-.89,4.6,4.6,0,0,0-.84-.75c-.24-.18-.5-.34-.74-.51a4.9,4.9,0,0,1-.6-.51,1.79,1.79,0,0,1-.43-.8c-.09-.3-.15-.61-.22-.91A5.34,5.34,0,0,0,2.17,8C2,7.65,1.73,7.31,1.51,7c-.08-.13-.16-.26-.23-.4S1.25,6.5,1.25,6.47Zm8.69,4.26a2.53,2.53,0,0,0-.57.08,2.59,2.59,0,0,0-.77.36,3,3,0,0,0-.71.71A2.07,2.07,0,0,0,7.51,13a1.51,1.51,0,0,0,.31,1s0,.07.07.06,0-.05,0-.08a2.13,2.13,0,0,1,.2-.55,2.89,2.89,0,0,1,1.19-1.21,3.3,3.3,0,0,1,.87-.35,2.19,2.19,0,0,1,1.19,0l.26.11s0,0,.07,0,0,0,0-.08l0,0a3,3,0,0,0-.32-.47A1.86,1.86,0,0,0,9.94,10.73Zm-.4-3.66h.63c.07,0,.08,0,0-.09l-.07-.11a1.75,1.75,0,0,0-.84-.58,1.23,1.23,0,0,0-.76,0A1.18,1.18,0,0,0,7.75,7a1.27,1.27,0,0,0-.09.47s0,0,0,.06,0,0,.06,0L8,7.33a2.14,2.14,0,0,1,.64-.23A3.71,3.71,0,0,1,9.54,7.07ZM4.41,9.34a1.15,1.15,0,0,0,.08.41.85.85,0,0,0,.21.32s.06,0,.08,0V10a1.24,1.24,0,0,1,.09-.33A2.57,2.57,0,0,1,5.28,9a3.2,3.2,0,0,1,1-.82c.06,0,.07,0,0-.09A1.23,1.23,0,0,0,6.05,8,.89.89,0,0,0,5.11,8a1.44,1.44,0,0,0-.46.49A1.82,1.82,0,0,0,4.41,9.34Zm2.78,1.29H7.11c-.11,0-.14,0-.13-.14a.32.32,0,0,1,0-.09l.09-.17.06-.13s0,0,0,0,0,0,0,0a1.16,1.16,0,0,0-.18.2.48.48,0,0,0,0,.45,2.43,2.43,0,0,0,.14.2.12.12,0,0,0,.14.05l.12,0A4.05,4.05,0,0,0,8,10.78a2.4,2.4,0,0,0,.9-.49,2.62,2.62,0,0,0,.5-.55.16.16,0,0,0,0-.15,1,1,0,0,0-.14-.24.6.6,0,0,0-.13-.09c-.07,0-.1,0-.11.07a.49.49,0,0,0,0,.12,1,1,0,0,1-.42.81,1.63,1.63,0,0,1-.71.28A6.15,6.15,0,0,1,7.19,10.63Zm-.45.49a2.08,2.08,0,0,0,0-.25.42.42,0,0,0-.08-.26.05.05,0,0,0,0,0s0,0,0,.05a1.59,1.59,0,0,0-.06.43,4.68,4.68,0,0,0,.09,1.29,3.55,3.55,0,0,0,.66,1.45,1.45,1.45,0,0,0,.17.19s0,0,0,0,0,0,0-.05,0-.07-.05-.1A6.07,6.07,0,0,1,6.74,11.12ZM9.67,9.18s0,0,0,0,0,0,0,0l0,0a3.57,3.57,0,0,1,.38.3,6.26,6.26,0,0,1,.51.52c.22.26.43.52.62.79s.38.56.58.83c0,0,0,.07.06.05s0-.05,0-.08a3.31,3.31,0,0,0-.47-1,4.46,4.46,0,0,0-.91-1,2.17,2.17,0,0,0-.67-.4Zm1.23,3.41s0,0,0,0l-.09,0a1.65,1.65,0,0,0-.76.07,2.08,2.08,0,0,0-1,.62,1.54,1.54,0,0,0-.26.42s0,.06,0,.07,0,0,.05,0a1.9,1.9,0,0,1,.56-.5,4.76,4.76,0,0,1,1.26-.51l.2-.06S10.9,12.61,10.9,12.59ZM7.15,6.81a2.42,2.42,0,0,0,.06.47,1.73,1.73,0,0,0,.4.8s0,.07.07.05,0-.06,0-.09a2,2,0,0,1-.21-1.71,3.84,3.84,0,0,1,.39-.85s0-.06,0-.08,0,0-.07,0a3.5,3.5,0,0,0-.33.43A2,2,0,0,0,7.15,6.81Zm-1.08.6s0,0,0-.06a1.24,1.24,0,0,0-.95-.44A1.73,1.73,0,0,0,4,7.32a1.13,1.13,0,0,0-.24.29s0,0,0,.07,0,0,.06,0L4,7.5a1.59,1.59,0,0,1,.78-.38,1.64,1.64,0,0,1,1,.16ZM6.6,8.73a.29.29,0,0,0,0-.19s0,0-.06,0,0,0,0,.05a1.17,1.17,0,0,1-.21.6c-.14.22-.3.42-.46.63s-.13.19-.2.29,0,0,0,.05,0,0,.06,0l.12-.07a2.28,2.28,0,0,0,.72-.88A1.5,1.5,0,0,0,6.6,8.73Zm1.28-1s0,0,0,.06a1.09,1.09,0,0,0,.57.32,2.51,2.51,0,0,0,1.09,0,.21.21,0,0,0,.11,0,0,0,0,0,0,0,0s0,0,0,0h0a3.46,3.46,0,0,1-.85,0,7.9,7.9,0,0,1-.84-.2S7.9,7.7,7.88,7.72Z"/>
        <path d="M14.19,8.41s0,0,.06.06a8.44,8.44,0,0,0,1.89,1.93,8.75,8.75,0,0,0,2,1.11,10.57,10.57,0,0,0,1.84.56,8.67,8.67,0,0,0,2.16.16l.52-.05h.05s0,0,.06,0,0,0,0,.05a6,6,0,0,0-.43.68,10.41,10.41,0,0,0-.59,1.32c-.2.54-.37,1.1-.61,1.63A7.37,7.37,0,0,1,20.54,17a3.94,3.94,0,0,1-1.22,1.15l-.21.11a.5.5,0,0,0-.2.18,6.35,6.35,0,0,0-.67,1,9,9,0,0,1-.64,1.08,3.21,3.21,0,0,1-.77.79,2.37,2.37,0,0,1-1,.39,4.18,4.18,0,0,1-2.72-.55,3.55,3.55,0,0,1-1.32-1.29,2.76,2.76,0,0,1-.37-1,3.08,3.08,0,0,1,.06-.91,9.35,9.35,0,0,1,.32-1.15,7,7,0,0,0,.3-1.2,3.15,3.15,0,0,0,0-.92c0-.25-.09-.51-.12-.77a2.54,2.54,0,0,1,.14-1.19,7.1,7.1,0,0,1,.67-1.28c.28-.46.58-.9.84-1.36a4.6,4.6,0,0,0,.52-1.23C14.15,8.67,14.17,8.54,14.19,8.41Zm-.67,8s0,0,0,0a1.78,1.78,0,0,0,.08,1.73,2.5,2.5,0,0,0,2,1.24,1.73,1.73,0,0,0,1.1-.27,2.11,2.11,0,0,0,.85-1.08s0,0,0-.05,0,0-.06,0a2.11,2.11,0,0,1-.46.21,2.4,2.4,0,0,1-1.19,0,3.45,3.45,0,0,1-1.33-.62,2.85,2.85,0,0,1-.78-.84A2.32,2.32,0,0,1,13.52,16.44Zm1.25-4.33a1.65,1.65,0,0,0-.68.13,1.75,1.75,0,0,0-.29.18s0,0,0,0,0,0,.06,0h0a4.87,4.87,0,0,1,1.38.75,4.47,4.47,0,0,1,.63.6c.05.05.06.05.09,0a1.66,1.66,0,0,0,.1-.29,1,1,0,0,0-.18-.89A1.52,1.52,0,0,0,14.77,12.11Zm3.87,1.63a.79.79,0,0,0-.29.06,1.42,1.42,0,0,0-.74.71c0,.08,0,.08.05.09.27,0,.55,0,.82.06a4.63,4.63,0,0,1,1.57.45l.07,0h.05s0,0,0,0,0,0,0,0A2.15,2.15,0,0,0,19.38,14,1.25,1.25,0,0,0,18.64,13.74Zm-2.25,3.49a1.62,1.62,0,0,0,.62-.1c.14,0,.17-.13.15-.27a.36.36,0,0,0,0-.11c-.06-.11-.12-.11-.19,0l0,0a.64.64,0,0,1-.41.27A1.19,1.19,0,0,1,16,17a2.05,2.05,0,0,1-.87-.55,1.72,1.72,0,0,1-.31-.45c0-.11,0-.15.09-.18l.09,0,.06,0s.05,0,0-.07,0,0-.07,0l-.28.09a.4.4,0,0,0-.22.14.09.09,0,0,0,0,.13,2.47,2.47,0,0,0,.64.76A2.11,2.11,0,0,0,16.39,17.23ZM13,17h0v0a.68.68,0,0,1,0-.4,1.3,1.3,0,0,1,.38-.52,2.34,2.34,0,0,1,.6-.33,2.71,2.71,0,0,0,.3-.13s.06,0,.06-.07-.05,0-.08-.05a.78.78,0,0,0-.56.05,1.57,1.57,0,0,0-.66.59,1.07,1.07,0,0,0-.19.54A.56.56,0,0,0,13,17Zm4.45-.26.2.24a1.44,1.44,0,0,1,.24,1.3,2.46,2.46,0,0,1-.37.72.86.86,0,0,0-.07.1.08.08,0,0,0,.08,0,1.72,1.72,0,0,0,.6-.87,1.16,1.16,0,0,0-.45-1.34A.84.84,0,0,0,17.45,16.73Zm-.6-1.57,0,0a1.51,1.51,0,0,0,.11-.22,3.31,3.31,0,0,1,.67-1,1.66,1.66,0,0,1,.8-.46l.53-.12a.27.27,0,0,0,.16-.12,4.19,4.19,0,0,0-.63.07,1.73,1.73,0,0,0-1,.56,2.85,2.85,0,0,0-.63,1.22A.12.12,0,0,0,16.85,15.16Zm-1.4,4.72s0,0,0,0a1.06,1.06,0,0,1-.7-.11c-.25-.12-.48-.27-.72-.39a1.53,1.53,0,0,0-.32-.13s0,0,0,0l0,.06a1.62,1.62,0,0,0,.32.32A1.66,1.66,0,0,0,15,20,.61.61,0,0,0,15.45,19.88Zm1.05-6.94h0a0,0,0,0,1,0,0A1,1,0,0,0,16.2,12a2.49,2.49,0,0,0-1-.49h-.06s0,0-.05,0l0,0,.15.08a2.45,2.45,0,0,1,.74.49,1.5,1.5,0,0,1,.44.64A1.16,1.16,0,0,1,16.5,12.94Zm-2.63.11a.46.46,0,0,0,.09.17,1.83,1.83,0,0,0,.48.39,3.16,3.16,0,0,0,.9.34.22.22,0,0,0,.11,0,.08.08,0,0,0,0,0,4,4,0,0,0-.45-.25,7.43,7.43,0,0,1-.88-.47A.82.82,0,0,0,13.87,13.05ZM17.8,15a2.34,2.34,0,0,0,1.11.5,1.84,1.84,0,0,0,.74,0C19,15.33,18.41,15.19,17.8,15Z"/>
    </g>
</svg>