<svg id="auditions_icon" xmlns="http://www.w3.org/2000/svg" viewBox="0 0 24 24">
    <g class="light">
        <path d="M15.42,10v.63H12.66v.56h2.76v.63H12.66v.56h2.76V13H12.66v.56h2.76v.63H12.66v.58h2.61l-.13.6H12.66V16h2.18a3.64,3.64,0,0,1-2.75,1.87H10.43A3.57,3.57,0,0,1,7.68,16H9.85v-.6H7.37l-.13-.59H9.88l0-.57H7.1v-.63H9.85V13H7.1v-.63H9.85v-.56H7.1v-.63H9.85v-.56H7.1V10H9.85V9.43H7.1V8.8H9.85V8.25H7.1V7.61H9.85V7.06H7.1V6.42H9.85V5.84H7.24l.14-.59H9.86V4.64H7.68a3.62,3.62,0,0,1,2.75-1.86h1.66a3.58,3.58,0,0,1,2.75,1.88H12.67v.6h2.47l.13.59H12.63l0,.57h2.76v.64H12.66v.55h2.76v.64H12.66V8.8h2.76v.63H12.66V10Z"/>
    </g>
    <g class="dark">
        <path d="M8.7,21.34a.71.71,0,0,1-.33-.46.52.52,0,0,1,.54-.68h1.77V17.88a6,6,0,0,1,1.12,0V20.2h1.68c.26,0,.51,0,.62.3a.66.66,0,0,1-.23.79l-.06.05Z"/>
        <path d="M5.94,12.74c.33.09.37.33.36.59a6.76,6.76,0,0,0,.17,1.79A4.94,4.94,0,0,0,8.29,18a3.71,3.71,0,0,0,1.5.64.49.49,0,0,1,.44.32c-.12.39-.18.43-.55.37a4.65,4.65,0,0,1-3.8-3.38,7.76,7.76,0,0,1-.3-2.67A.46.46,0,0,1,5.94,12.74Z"/>
        <path d="M12.29,19a.42.42,0,0,1,.36-.35A4.33,4.33,0,0,0,16,15.12a6.76,6.76,0,0,0,.17-1.79c0-.25,0-.5.35-.58a.37.37,0,0,1,.36.38,6.38,6.38,0,0,1-1.13,4.42,4.32,4.32,0,0,1-3,1.76C12.47,19.34,12.43,19.32,12.29,19Z"/>
    </g>
</svg>