<svg id="career_icon" xmlns="http://www.w3.org/2000/svg" viewBox="0 0 24 24">
    <g class="dark">
        <path d="M19.06,13.54a1.35,1.35,0,0,1-1.15-.45C16.22,11.54,14.5,10,12.81,8.5a.56.56,0,0,0-.62-.14,12.66,12.66,0,0,1-2,.49A2.45,2.45,0,0,1,7.59,7.67a.53.53,0,0,1,.34-.83c1.17-.35,2.31-.79,3.46-1.22a2.41,2.41,0,0,1,1.81,0c1.05.43,2.12.79,3.17,1.19a.66.66,0,0,0,.46,0l2.34-.65a.3.3,0,0,1,.39.14,15.94,15.94,0,0,1,1.29,2.32c.53,1.09,1,2.21,1.47,3.33a.38.38,0,0,1-.11.51A4.44,4.44,0,0,1,19.06,13.54Z"/>
        <path d="M7.32,18.55a.84.84,0,0,1-.68-.29A31.07,31.07,0,0,1,4.07,15.2c-.4-.51-.79-1-1.18-1.54A1.64,1.64,0,0,1,2.56,13a.84.84,0,0,1,.21-.77c.25-.26.49-.52.75-.78a1.07,1.07,0,0,1,1.72.35c.08.17.14.22.33.15a1,1,0,0,1,1.2.31,1,1,0,0,1,.16,1.18c-.11.21,0,.2.15.2a1.08,1.08,0,0,1,1.16,1,.94.94,0,0,1-.21.74s-.12.09-.09.16.13,0,.2,0a1.05,1.05,0,0,1,1.11.91.83.83,0,0,1-.21.75c-.31.36-.63.7-.95,1.05A.94.94,0,0,1,7.32,18.55Z"/>
    </g>
    <g class="light">
        <path d="M10.69,20.16a4,4,0,0,1-1.76-1.31.13.13,0,0,1,0-.21c.14-.15.28-.3.41-.46s.2-.13.32,0,.48.49.73.72a1,1,0,0,0,1.41,0c.15-.14.15-.25,0-.39-.57-.56-1.13-1.13-1.69-1.7a1.06,1.06,0,0,1-.15-.15.38.38,0,0,1,0-.53.42.42,0,0,1,.54-.07,1.3,1.3,0,0,1,.22.19c.8.79,1.6,1.58,2.39,2.39a.83.83,0,0,0,.88.19,1,1,0,0,0,.72-.68c0-.13-.08-.19-.15-.26-.86-.86-1.72-1.73-2.59-2.59l-.83-.83c-.25-.26-.28-.45-.09-.64s.39-.17.64.08c1.18,1.18,2.37,2.35,3.54,3.54a.53.53,0,0,0,.64.14,1.19,1.19,0,0,0,.63-.56.44.44,0,0,0-.1-.57L13,13.08l-.62-.63a.4.4,0,0,1,0-.56c.18-.2.38-.2.6,0l1.85,1.84L17,15.92a.32.32,0,0,0,.41.07,1.08,1.08,0,0,0,.67-1.28c-.06-.23,0-.26.21-.22a3.8,3.8,0,0,0,.59.06.26.26,0,0,1,.23.14v.58s0,0,0,.06a2.11,2.11,0,0,1-1.39,1.61.36.36,0,0,0-.2.25,2.07,2.07,0,0,1-1.63,1.4.53.53,0,0,0-.45.32,1.36,1.36,0,0,1-.31.37,2,2,0,0,1-2.39.33c-.08,0-.15-.06-.22,0a3,3,0,0,1-1,.55Z"/>
        <path d="M1.63,9.09A7,7,0,0,1,3.4,4.73,9.16,9.16,0,0,1,4.69,3.6a.25.25,0,0,1,.25,0l5.17,1.68c.07,0,.19,0,.19.11s-.12.09-.19.12a3.8,3.8,0,0,0-.47.18,1.7,1.7,0,0,1-1.46,0c-.95-.34-1.92-.63-2.87-1a.54.54,0,0,0-.62.11,6,6,0,0,0-2,3.84,4.9,4.9,0,0,0,0,1.21,1.71,1.71,0,0,0,.41.83c.1.12.12.22,0,.33a3.32,3.32,0,0,0-.38.37c-.11.12-.17.14-.3,0A3,3,0,0,1,1.63,9.09Z"/>
    </g>
</svg>