<svg id="contact_icon" xmlns="http://www.w3.org/2000/svg" viewBox="0 0 24 24">
    <g class="dark">
        <path d="M16.16,12.15l-.23-.05c-.47-.14-.92-.31-1.39-.43-.28-.07-.31-.19-.22-.45.62-1.77,1.23-3.56,1.84-5.34.48-1.42,1-2.83,1.45-4.25.08-.25.18-.31.42-.22.44.17.89.32,1.34.45.28.08.31.21.22.46-.53,1.53-1,3.05-1.56,4.58l-1.71,5C16.29,12,16.28,12.09,16.16,12.15Z"/>
        <path d="M14.37,14.59c-.11-.73-.2-1.4-.3-2.06,0-.18,0-.26.21-.18.47.16,1,.31,1.44.45.27.08.21.18.07.33C15.33,13.59,14.88,14.06,14.37,14.59Z"/>
    </g>
    <g class="light">    
        <path d="M2.59,9.11A2.29,2.29,0,0,1,2.69,8a1.45,1.45,0,0,1,.7-.82l9.3-4.83a1.71,1.71,0,0,1,2.18.73c.17.3.32.62.48.93a.58.58,0,0,1,.05.43c-.13.37-.24.75-.36,1.13,0,.11-.08.22-.21.23s-.19-.1-.24-.2l-.81-1.55c-.22-.41-.48-.5-.88-.29L4.42,8.17c-.45.23-.5.42-.28.86q3,5.87,6.08,11.72c.24.46.43.52.9.28l8.44-4.38a.58.58,0,0,0,.28-.92L17.9,12a.82.82,0,0,1-.06-.83,8.42,8.42,0,0,0,.29-.89c0-.1.07-.22.2-.24s.19.09.24.19c.9,1.73,1.82,3.45,2.68,5.19a1.79,1.79,0,0,1-.35,2L11,22.63A2.37,2.37,0,0,1,9.27,22Z"/>
        <path d="M9.15,6.88,12.74,5c.4-.21.43-.2.65.21.3.58.6,1.17.91,1.75a.7.7,0,0,1,0,.6L13.85,9a.63.63,0,0,1-.33.33L7.39,12.49c-.25.13-.4.11-.54-.16-.51-1-1-2-1.55-3-.15-.27-.07-.42.19-.55Zm.68,1.24L7.75,9.2c-.8.42-.77.3-.34,1.14.22.4.25.41.66.2L12.38,8.3c.88-.46.85-.28.37-1.23-.13-.27-.29-.32-.56-.18C11.41,7.31,10.62,7.72,9.83,8.12Z"/>
        <path d="M14.9,18l-3.56,1.85c-.43.22-.49.2-.72-.24-.45-.87-.48-.73.38-1.18l6.79-3.52c.47-.25.48-.24.73.22.4.78.4.78-.36,1.18Z"/>
        <path d="M10.35,14.05l-1.71.89a.32.32,0,0,1-.51-.15c-.55-1.1-.59-.86.41-1.39s1.87-1,2.8-1.46c.29-.15.46-.12.61.19.49,1,.55.8-.41,1.31Z"/>
        <path d="M11.65,16.65c-.56.29-1.12.57-1.68.87-.23.12-.38.09-.5-.16-.56-1.09-.6-.85.4-1.38s1.84-1,2.77-1.44c.41-.21.45-.2.65.19.48.92.51.8-.39,1.27Z"/>
    </g>
</svg>