<svg id="gl_icon" data-name="gl_icon" xmlns="http://www.w3.org/2000/svg" xmlns:xlink="http://www.w3.org/1999/xlink" viewBox="0 0 24 24">
    <defs>
        <style>.cls-1{fill:url(#linear-gradient);}.cls-2{fill:url(#linear-gradient-2);}.cls-3{fill:#f6eb16;}.cls-4{fill:url(#linear-gradient-3);}.cls-5{fill:url(#linear-gradient-4);}.cls-6{fill:url(#linear-gradient-5);}.cls-7{fill:url(#linear-gradient-6);}</style>
        <linearGradient id="linear-gradient" x1="10.24" y1="9.94" x2="10.24" y2="18.69" gradientUnits="userSpaceOnUse">
            <stop offset="0" stop-color="#333"/><stop offset="0.29" stop-color="#333" stop-opacity="0.94"/>
            <stop offset="0.52" stop-color="#333" stop-opacity="0.74"/><stop offset="0.73" stop-color="#333" stop-opacity="0.41"/>
            <stop offset="0.91" stop-color="#333" stop-opacity="0"/>
        </linearGradient>
        <linearGradient id="linear-gradient-2" x1="13.69" y1="9.94" x2="13.69" y2="18.69" xlink:href="#linear-gradient"/>
        <linearGradient id="linear-gradient-3" x1="12.03" y1="2.93" x2="12.03" y2="20.44" gradientUnits="userSpaceOnUse">
            <stop offset="0" stop-color="#4d4d4d" stop-opacity="0.3"/><stop offset="0.91" stop-color="gray" stop-opacity="0"/>
        </linearGradient>
        <linearGradient id="linear-gradient-4" x1="12.04" y1="2.93" x2="12.04" y2="20.44" gradientUnits="userSpaceOnUse">
            <stop offset="0" stop-color="#333"/>
            <stop offset="0.33" stop-color="#333" stop-opacity="0.94"/>
            <stop offset="0.58" stop-color="#333" stop-opacity="0.76"/>
            <stop offset="0.8" stop-color="#333" stop-opacity="0.44"/>
            <stop offset="1" stop-color="#333" stop-opacity="0"/>
            <stop offset="1" stop-color="#333" stop-opacity="0"/>
        </linearGradient>
        <linearGradient id="linear-gradient-5" x1="12" y1="13.84" x2="12" y2="9.71" gradientUnits="userSpaceOnUse">
            <stop offset="0" stop-color="#92acb5"/>
            <stop offset="0.15" stop-color="#92acb5" stop-opacity="0.98"/>
            <stop offset="0.29" stop-color="#92acb5" stop-opacity="0.92"/>
            <stop offset="0.41" stop-color="#92acb5" stop-opacity="0.82"/>
            <stop offset="0.53" stop-color="#92acb5" stop-opacity="0.69"/>
            <stop offset="0.65" stop-color="#92acb5" stop-opacity="0.51"/>
            <stop offset="0.77" stop-color="#92acb5" stop-opacity="0.29"/>
            <stop offset="0.88" stop-color="#92acb5" stop-opacity="0.04"/>
            <stop offset="0.89" stop-color="#92acb5" stop-opacity="0"/>
        </linearGradient>
        <linearGradient id="linear-gradient-6" x1="7.72" y1="12" x2="14.87" y2="12" gradientUnits="userSpaceOnUse">
            <stop offset="0" stop-color="#666dab"/>
            <stop offset="0.31" stop-color="#686fac" stop-opacity="0.99"/>
            <stop offset="0.45" stop-color="#6e75b0" stop-opacity="0.95"/>
            <stop offset="0.55" stop-color="#7a80b6" stop-opacity="0.87"/>
            <stop offset="0.63" stop-color="#8a8fbf" stop-opacity="0.77"/>
            <stop offset="0.71" stop-color="#9ea3ca" stop-opacity="0.63"/>
            <stop offset="0.77" stop-color="#b8bbd8" stop-opacity="0.46"/>
            <stop offset="0.84" stop-color="#d7d8e9" stop-opacity="0.26"/>
            <stop offset="0.89" stop-color="#f9f9fc" stop-opacity="0.04"/>
            <stop offset="0.9" stop-color="#fff" stop-opacity="0"/>
        </linearGradient>
    </defs>
    <path class="cls-1" d="M11,18.69h-.24a13.14,13.14,0,0,0-.65-4.52A11.91,11.91,0,0,1,9.5,9.94h.24a11.75,11.75,0,0,0,.59,4.14A13.35,13.35,0,0,1,11,18.69Z"/>
    <path class="cls-2" d="M13,18.69a13.35,13.35,0,0,1,.65-4.6A11.75,11.75,0,0,0,14.19,10h.24a11.64,11.64,0,0,1-.6,4.22,13.46,13.46,0,0,0-.64,4.52Z"/>
    <path class="cls-3" d="M11.48,11.13h0c-.4-.05-.41-.66-.41-1.31a2.29,2.29,0,0,0-.12-1h-.05c-.15,0-.18.55-.2.91s-.05.84-.23,1a.28.28,0,0,1-.22.06c-.26,0-.29-.39-.32-.74a1.66,1.66,0,0,0-.08-.48,1.92,1.92,0,0,0-.08.37l-.24,0c0-.4.15-.61.31-.61h0c.28,0,.31.38.34.73,0,.15,0,.5.1.52h0c.11-.08.13-.51.15-.82,0-.56.06-1.1.42-1.13a.29.29,0,0,1,.23.07c.19.18.2.62.2,1.14s0,1,.19,1.06c0,0,0,0,0,0s.1-.59.09-.94c0-.65,0-1.26.36-1.32a.3.3,0,0,1,.23.06c.19.16.2.59.21,1.08s0,1,.2,1,.1-.46.11-.74c0-.52,0-1,.34-1.07a.29.29,0,0,1,.2.05c.17.13.21.46.25.85s.08.74.2.75.07-.43.06-.64c0-.46,0-.9.3-1a.24.24,0,0,1,.16.05c.17.15.2.67.21.88h-.24a2,2,0,0,0-.11-.68c-.08.07-.07.5-.07.69,0,.37,0,.68-.14.82a.25.25,0,0,1-.19.07c-.32,0-.37-.49-.42-1,0-.27-.07-.62-.16-.69S13,9.72,13,10s0,.77-.18.91a.24.24,0,0,1-.2.06c-.38,0-.4-.63-.41-1.25,0-.34,0-.8-.13-.89h0c-.18,0-.17.66-.16,1.07s0,1-.16,1.13A.3.3,0,0,1,11.48,11.13Z"/>
    <path class="cls-4" d="M9.62,20.44a31.76,31.76,0,0,0-.44-4.51C8.59,13.81,6,11.13,6,8.54a5.85,5.85,0,0,1,6-5.61,6,6,0,0,1,6.08,4.85c.45,2.88-2.14,5.59-3,8.14a18.74,18.74,0,0,0-.16,4.51Z"/>
    <path class="cls-5" d="M9.62,20.44l-.3-3.62a7.79,7.79,0,0,0-1.56-3.67A8.84,8.84,0,0,1,6,8.54a5.76,5.76,0,0,1,6-5.61,5.91,5.91,0,0,1,6.15,5.61,9,9,0,0,1-1.74,4.57A8.13,8.13,0,0,0,14.85,17v3.41H14.6V17a8.22,8.22,0,0,1,1.58-4,8.8,8.8,0,0,0,1.7-4.45A5.65,5.65,0,0,0,12,3.18,5.52,5.52,0,0,0,6.2,8.54,8.72,8.72,0,0,0,8,13a8,8,0,0,1,1.6,3.79l.3,3.61Z"/>
    <path class="cls-6" d="M12.21,13.84H12c-4.78,0-7.64-.6-8.5-1.72a.92.92,0,0,1-.18-.89c.26-.79,1.53-1.34,2.17-1.52l.14.47c-.67.19-1.68.69-1.85,1.2a.46.46,0,0,0,.1.44c.53.69,2.37,1.51,8.12,1.53h.17c4.43,0,7.25-.61,8-1.71a.25.25,0,0,0,0-.24,2.61,2.61,0,0,0-1.44-1.23l.17-.45a3,3,0,0,1,1.74,1.53.74.74,0,0,1-.06.65C19.56,13.49,15.5,13.84,12.21,13.84Z"/>
    <path class="cls-7" d="M12.45,23.36a2.49,2.49,0,0,1-.46-.05c-2.23-.47-4.31-6.59-4.27-12.59C7.76,5.61,9.59,1.3,12,.7,13.82.23,14.83,2.86,14.87,3l-.46.17s-.91-2.32-2.31-2C10,1.71,8.25,5.91,8.21,10.73c0,6.07,2.1,11.73,3.88,12.1,1.43.31,2.32-1.41,2.33-1.43l.44.22A3.1,3.1,0,0,1,12.45,23.36Z"/>
</svg>