<svg id="models_icon" xmlns="http://www.w3.org/2000/svg" viewBox="0 0 24 24">
    <g class="light">
        <path d="M9.9,4h.36a.42.42,0,0,1,0,.1c-.28.34-.28.35,0,.62s.57.6.87.89a1.06,1.06,0,0,1,.37.86c0,.48,0,1,0,1.43,0,.32-.14.69.22.93,0,0,0,0,0,.05,0,.25,0,.49,0,.75s-.23.63-.31.95a4.28,4.28,0,0,1-.39,1,1.34,1.34,0,0,0-.2.75c0,.16,0,.32,0,.48a.31.31,0,0,0,.09.27,1.05,1.05,0,0,1,.28.59c.13.53.16.53.75.81a11.57,11.57,0,0,0,1.36.58,9,9,0,0,1,1.14.52,4.35,4.35,0,0,1,1.17.65.39.39,0,0,1,.19.34c0,1.13,0,2.27,0,3.4H2c0-1.11,0-2.23,0-3.34a.42.42,0,0,1,.23-.44A5.08,5.08,0,0,1,2.63,16a17.48,17.48,0,0,1,1.62-.81c.43-.14.83-.37,1.26-.53s.7-.2.81-.61c0-.17.15-.33.18-.52s.21-.3.33-.44A.45.45,0,0,0,7,12.73a2.91,2.91,0,0,1,0-.66.65.65,0,0,0-.18-.52,1.42,1.42,0,0,1-.23-.5,5.44,5.44,0,0,1-.19-.52,3.49,3.49,0,0,0-.2-.57c-.09-.18,0-.37-.13-.55a.6.6,0,0,1,0-.62,1.3,1.3,0,0,0,.18-.88c0-.46,0-.91,0-1.37a1.35,1.35,0,0,1,0-.35A2.43,2.43,0,0,1,7.82,4.6a7.17,7.17,0,0,1,2-.5S9.89,4,9.9,4Z"/>
    </g>
    <g class="dark">
        <path d="M22,20H16.5V16.28c-.59-.86-1.59-1-2.32-1.53a3.06,3.06,0,0,1,.92-.64,1.56,1.56,0,0,0,.1-1.42c-.36-.3-.81-.33-1.1-.59a.76.76,0,0,1,0-.54c.08-.36.21-.71.28-1.08a16,16,0,0,0,.21-1.94,1.93,1.93,0,0,1,2.51-1.66A1.9,1.9,0,0,1,18.48,8.7a12.33,12.33,0,0,0,.52,3,.55.55,0,0,1,0,.42c-.3.31-.79.3-1.14.65A1.56,1.56,0,0,0,18,14a11.34,11.34,0,0,0,2.71,1.41l.26.13A1.94,1.94,0,0,1,22,17.4Z"/>
    </g>
</svg>