<svg id="workshop_icon" xmlns="http://www.w3.org/2000/svg" viewBox="0 0 24 24">
    <g class="light">
        <path d="M7.29,10.91l1.31.45-.29.84a3.75,3.75,0,0,1,1,.86l.72-.42.65,1.27-.81.36a3.88,3.88,0,0,1,.07,1.27l.82.28-.45,1.32-.83-.29a4,4,0,0,1-.88,1l.41.7-1.26.69-.35-.83a3.92,3.92,0,0,1-1.28.08l-.28.83-1.29-.45L4.81,18a3.8,3.8,0,0,1-1-.88l-.72.42-.65-1.28.81-.34c-.24-.54.25-1.41-.78-1.51,0,0-.08,0-.13-.06l.45-1.29.84.29a3.84,3.84,0,0,1,.87-1l-.41-.71L5.41,11l.33.79A3.64,3.64,0,0,1,7,11.74Zm1.15,4.84a2,2,0,0,0-3.71-1.38A2,2,0,0,0,5.84,17,1.94,1.94,0,0,0,8.44,15.75Z"/>
    </g>
    <g class="dark">
        <path d="M11.46,1.82h1.67V2.89a4.88,4.88,0,0,1,1.44.61l.66-.76,1.24,1.19-.78.73a5,5,0,0,1,.58,1.42h1.05V7.76H16.26a4.74,4.74,0,0,1-.63,1.45l.74.64L15.2,11.14l-.72-.82a4.6,4.6,0,0,1-1.43.59V12H11.4V10.89A5,5,0,0,1,10,10.27L9.3,11,8.07,9.81l.79-.7c-.49-.53-.28-1.7-1.48-1.42a.91.91,0,0,1-.17,0V6H8.28a4.63,4.63,0,0,1,.61-1.46l-.75-.66L9.35,2.68l.69.78a4.58,4.58,0,0,1,1.42-.58ZM14.67,6.9a2.39,2.39,0,0,0-4.78-.12,2.39,2.39,0,1,0,4.78.12Z"/>
        <path d="M13.73,12.93l1.52-.71.46,1a5.06,5.06,0,0,1,1.56-.07l.27-1,1.63.55-.39,1a5.07,5.07,0,0,1,1.13,1l.94-.45.72,1.52-.95.45a4.89,4.89,0,0,1,.05,1.58l.95.26-.52,1.67-1-.43a4.91,4.91,0,0,1-1,1.14l.45,1-1.49.7-.46-1a4.84,4.84,0,0,1-1.57.05l-.27,1-1.64-.57.42-1c-.67-.27-1-1.43-1.95-.65a.76.76,0,0,1-.16.06l-.71-1.49,1-.46a4.89,4.89,0,0,1-.07-1.58l-1-.27.57-1.64,1,.42a4.75,4.75,0,0,1,1-1.14Zm5.08,3.22a2.39,2.39,0,0,0-4.37,1.94,2.36,2.36,0,0,0,3.15,1.3A2.34,2.34,0,0,0,18.81,16.15Z"/>
    </g>
</svg>